HIERARCHY
ROOT Pelvis
{
	OFFSET 0.000000 0.000000 0.000000
	CHANNELS 6 Xposition Yposition Zposition Xrotation Yrotation Zrotation
	JOINT LeftUpLeg_virtual
	{
		OFFSET 0.000000 0.000000 0.000000
		CHANNELS 3 Xrotation Yrotation Zrotation
		JOINT LeftUpLeg
		{
			OFFSET 18.735201 -5.666702 -4.541200
			CHANNELS 3 Xrotation Yrotation Zrotation
			JOINT LeftLeg
			{
				OFFSET -0.021200 -31.938179 0.493100
				CHANNELS 3 Xrotation Yrotation Zrotation
				JOINT LeftFoot
				{
					OFFSET 0.021200 -31.938179 -4.336299
					CHANNELS 3 Xrotation Yrotation Zrotation
					JOINT LeftToeBase
					{
						OFFSET 0.943001 -26.722000 15.023500
						CHANNELS 3 Xrotation Yrotation Zrotation
						End Site
						{
							OFFSET 0 0 0
						}
					}
				}
			}
		}
	}
	JOINT RightUpLeg_virtual
	{
		OFFSET 0.000000 0.000000 0.000000
		CHANNELS 3 Xrotation Yrotation Zrotation
		JOINT RightUpLeg
		{
			OFFSET -18.735201 -5.666702 -4.541200
			CHANNELS 3 Xrotation Yrotation Zrotation
			JOINT RightLeg
			{
				OFFSET 0.018946 -31.938133 0.493100
				CHANNELS 3 Xrotation Yrotation Zrotation
				JOINT RightFoot
				{
					OFFSET -0.018946 -31.938126 -4.336299
					CHANNELS 3 Xrotation Yrotation Zrotation
					JOINT RightToeBase
					{
						OFFSET -0.943001 -26.722004 15.023500
						CHANNELS 3 Xrotation Yrotation Zrotation
						End Site
						{
							OFFSET 0 0 0
						}
					}
				}
			}
		}
	}
	JOINT Hips_virtual
	{
		OFFSET 0.000000 0.000000 0.000000
		CHANNELS 3 Xrotation Yrotation Zrotation
		JOINT Hips
		{
			OFFSET -0.000000 -0.000000 -0.000000
			CHANNELS 3 Xrotation Yrotation Zrotation
			JOINT Spine
			{
				OFFSET 0.000000 10.199997 -0.299500
				CHANNELS 3 Xrotation Yrotation Zrotation
				JOINT Spine1
				{
					OFFSET 0.000000 11.900002 -1.516600
					CHANNELS 3 Xrotation Yrotation Zrotation
					JOINT Spine2
					{
						OFFSET 0.000000 13.600006 -2.842500
						CHANNELS 3 Xrotation Yrotation Zrotation
						JOINT Neck_virtual
						{
							OFFSET 0.000000 0.000000 0.000000
							CHANNELS 3 Xrotation Yrotation Zrotation
							JOINT Neck
							{
								OFFSET 0.000000 9.624100 -2.890100
								CHANNELS 3 Xrotation Yrotation Zrotation
								JOINT Head
								{
									OFFSET 0.000000 14.068802 -1.351900
									CHANNELS 3 Xrotation Yrotation Zrotation
									End Site
									{
										OFFSET 0 0 0
									}
								}
							}
						}
						JOINT LeftShoulder_virtual
						{
							OFFSET 0.000000 0.000000 0.000000
							CHANNELS 3 Xrotation Yrotation Zrotation
							JOINT LeftShoulder
							{
								OFFSET 15.263000 10.923401 -0.547700
								CHANNELS 3 Xrotation Yrotation Zrotation
								JOINT LeftArm
								{
									OFFSET 25.438599 -2.830597 -13.032500
									CHANNELS 3 Xrotation Yrotation Zrotation
									JOINT LeftForeArm
									{
										OFFSET 29.960503 0.000000 0.000000
										CHANNELS 3 Xrotation Yrotation Zrotation
										JOINT LeftHand
										{
											OFFSET 27.849251 0.000000 0.000000
											CHANNELS 3 Xrotation Yrotation Zrotation
											End Site
											{
												OFFSET 0 0 0
											}
										}
									}
								}
							}
						}
						JOINT RightShoulder_virtual
						{
							OFFSET 0.000000 0.000000 0.000000
							CHANNELS 3 Xrotation Yrotation Zrotation
							JOINT RightShoulder
							{
								OFFSET -15.263000 10.923401 -0.547700
								CHANNELS 3 Xrotation Yrotation Zrotation
								JOINT RightArm
								{
									OFFSET -25.438599 -2.830597 -13.032500
									CHANNELS 3 Xrotation Yrotation Zrotation
									JOINT RightForeArm
									{
										OFFSET -29.960503 0.000000 0.000000
										CHANNELS 3 Xrotation Yrotation Zrotation
										JOINT RightHand
										{
											OFFSET -27.849251 0.000000 0.000000
											CHANNELS 3 Xrotation Yrotation Zrotation
											End Site
											{
												OFFSET 0 0 0
											}
										}
									}
								}
							}
						}
					}
				}
			}
		}
	}
}
MOTION
Frames: 6
Frame Time: 0.03333333
4.710599 78.603127 2.088972 0.000000 0.000000 0.000000 2.480959 51.292016 -6.219299 -15.203892 3.005207 16.547547 51.131848 -7.660174 11.883144 -33.717236 6.190502 -12.814889 0.000000 0.000000 0.000000 0.228213 52.927266 -5.573041 -36.986929 7.027472 -20.320496 38.478704 14.234110 -1.640818 -7.202605 4.564440 19.064289 0.000000 0.000000 0.000000 0.728438 51.327502 -5.462253 0.391049 0.419146 -0.417721 5.803239 -1.599257 -1.336142 1.136978 -0.349004 -0.985293 0.000000 0.000000 0.000000 0.665030 -0.542614 -0.829513 -0.652125 -3.798815 0.766795 0.000000 0.000000 0.000000 1.047580 -0.417060 -0.925594 3.241456 -7.873991 -4.367548 -4.009103 -49.279593 -50.187079 -179.687838 -71.220493 179.611244 0.000000 0.000000 0.000000 1.117167 -0.522135 -1.087949 0.535549 2.036793 11.360093 -26.668849 -12.907852 40.020930 -172.850163 70.047866 173.074261 0.000000 0.000000 0.000000 
4.670909 80.922134 2.085918 0.000000 0.000000 0.000000 2.673038 51.309863 -6.196241 -14.476063 3.054288 16.124939 49.364779 -8.104044 11.043425 -25.801188 5.914881 -14.363488 0.000000 0.000000 0.000000 0.848462 52.902199 -5.750358 -36.996505 6.686504 -19.652925 35.686523 13.015096 -0.857789 -3.778879 4.208617 18.646136 0.000000 0.000000 0.000000 1.128329 51.025861 -5.665872 0.400286 -0.185218 -0.551355 5.054661 -1.612683 -1.367582 1.104914 -0.298019 -0.949027 0.000000 0.000000 0.000000 0.708822 -0.496870 -0.789958 -0.703426 -3.784403 0.803430 0.000000 0.000000 0.000000 0.945078 -0.383340 -0.883584 3.083989 -7.863875 -3.655765 -6.499131 -48.609466 -50.476208 -179.666623 -69.706329 -179.910571 0.000000 0.000000 0.000000 1.066622 -0.490991 -1.055667 0.780243 1.539785 10.857877 -28.754222 -10.910001 37.659887 -172.512028 68.388212 172.930049 0.000000 0.000000 0.000000 
4.522292 85.178833 1.891571 0.000000 0.000000 0.000000 3.186795 49.374608 -6.077800 -14.887186 3.388115 15.466449 47.075658 -7.613912 9.544400 -12.239810 5.052074 -15.106905 0.000000 0.000000 0.000000 2.429250 50.779888 -6.234575 -35.922868 6.058918 -18.014831 29.322330 12.043917 -0.164908 2.188525 4.668874 19.679817 0.000000 0.000000 0.000000 2.105078 49.179753 -5.869541 0.572289 -0.228716 -0.687238 4.004698 -1.560282 -1.036628 1.047223 -0.204780 -0.805972 0.000000 0.000000 0.000000 0.771413 -0.385804 -0.658867 -0.642340 -3.653479 0.799071 0.000000 0.000000 0.000000 0.905063 -0.311048 -0.790158 2.903985 -7.660379 -2.879220 -10.731607 -46.966945 -51.825218 -179.497850 -68.338474 -179.311003 0.000000 0.000000 0.000000 0.999867 -0.400100 -0.895367 1.088967 1.164936 10.087943 -30.998199 -7.011041 35.395072 -172.448917 67.378662 173.004266 0.000000 0.000000 0.000000 
4.400310 90.269577 1.316946 0.000000 0.000000 0.000000 3.554836 45.770518 -5.456022 -17.112390 4.155842 14.799569 45.754075 -6.171611 7.457029 3.358065 3.844928 -14.961121 0.000000 0.000000 0.000000 3.710605 46.583126 -6.234109 -34.416418 5.411824 -16.109933 23.157767 11.539893 0.398177 7.813579 5.349730 21.188131 0.000000 0.000000 0.000000 2.929601 45.863566 -5.565701 0.613230 -0.681542 -0.621993 3.046399 -1.465371 -0.469756 1.039849 -0.069649 -0.617286 0.000000 0.000000 0.000000 0.886961 -0.218956 -0.487232 -0.495894 -3.418705 0.768447 0.000000 0.000000 0.000000 0.942133 -0.187224 -0.691037 2.679254 -7.199971 -2.172494 -15.244477 -44.830729 -53.180464 -179.183538 -67.662893 -178.701914 0.000000 0.000000 0.000000 0.917025 -0.244896 -0.689162 1.394248 1.267145 9.289739 -31.995519 -1.946821 33.923378 -172.853660 66.931605 173.529193 0.000000 0.000000 0.000000 
4.475903 95.015015 0.456110 0.000000 0.000000 0.000000 3.352559 41.079715 -4.346599 -20.936502 5.217860 14.332853 46.573960 -4.249232 5.278907 16.155110 2.990561 -13.884561 0.000000 0.000000 0.000000 3.812501 41.238800 -5.278084 -32.947818 4.476449 -14.942400 20.672636 11.197540 0.677967 11.690996 5.410600 21.794111 0.000000 0.000000 0.000000 2.990353 41.489865 -4.340412 0.296011 -1.081524 -0.871464 2.504895 -1.329301 0.118633 1.132630 0.115673 -0.465651 0.000000 0.000000 0.000000 1.110926 0.004957 -0.350216 -0.344981 -3.108253 0.720930 0.000000 0.000000 0.000000 1.014508 0.007215 -0.618406 2.432514 -6.495860 -1.468311 -19.107777 -42.693924 -53.904324 -178.845239 -68.015440 -178.213733 0.000000 0.000000 0.000000 0.892697 -0.026578 -0.535195 1.622693 1.830961 8.549277 -31.368320 3.454415 33.202369 -173.672914 66.974137 174.482551 0.000000 0.000000 0.000000 
4.607575 98.795006 -0.379019 0.000000 0.000000 0.000000 2.292243 35.943447 -2.713766 -25.082261 6.119046 13.894558 48.640864 -2.446584 3.589751 23.175617 2.714250 -12.322571 0.000000 0.000000 0.000000 2.923923 35.758943 -3.676002 -32.123165 3.026345 -15.002191 23.345795 10.740780 0.687391 14.374538 4.799883 21.057586 0.000000 0.000000 0.000000 2.107877 36.433151 -2.355378 0.312171 -0.706161 -1.597818 2.531853 -1.132455 0.543104 1.352936 0.350015 -0.418413 0.000000 0.000000 0.000000 1.402979 0.279933 -0.340838 -0.252487 -2.753289 0.660932 0.000000 0.000000 0.000000 1.057499 0.283271 -0.605235 2.210450 -5.662012 -0.845384 -21.264759 -40.935301 -53.838136 -178.622274 -69.233816 -178.014852 0.000000 0.000000 0.000000 0.947206 0.257550 -0.509556 1.734143 2.559011 8.046825 -29.562592 8.093334 33.256727 -174.910694 67.846974 175.862536 0.000000 0.000000 0.000000 
